# Blender 4.2.0
# www.blender.org
mtllib cube.mtl
o Cube
v -2.288159 2.149962 2.857909
v -2.353521 2.149846 -1.978911
v 2.548655 2.158600 2.792547
v 2.483292 2.158484 -2.044274
v -2.279521 -2.687293 2.857909
v -2.344883 -2.687409 -1.978911
v 2.557293 -2.678655 2.792547
v 2.491931 -2.678771 -2.044274
vn 0.0135 -0.0000 0.9999
vn 0.9999 0.0018 -0.0135
vn 0.0018 -1.0000 -0.0000
vn -0.0135 -0.0000 -0.9999
vn -0.0018 1.0000 -0.0000
vn -0.9999 -0.0018 0.0135
vt 0.618580 0.352282
vt 0.867211 0.352282
vt 0.867211 0.600913
vt 0.618580 0.600913
vt 0.361680 0.592094
vt 0.618580 0.993586
vt 0.369948 0.993586
vt 0.369948 -0.000939
vt 0.618580 -0.000939
vt 0.613619 0.150684
vt 0.366641 0.147745
vt 0.104781 0.346402
vt 0.361680 0.349342
vt 0.104781 0.595034
s 0
usemtl Material.002
f 1/1/1 5/2/1 7/3/1 3/4/1
f 4/5/2 3/4/2 7/6/2 8/7/2
f 8/8/3 7/9/3 5/10/3 6/11/3
f 6/12/4 2/13/4 4/5/4 8/14/4
f 2/13/5 1/1/5 3/4/5 4/5/5
f 6/11/6 5/10/6 1/1/6 2/13/6
